<svg width="150" height="198" viewBox="0 0 150 198" fill="none" xmlns="http://www.w3.org/2000/svg">
<g clip-path="url(#clip0)">
<path d="M74.8706 77.0991C76.4364 75.0964 77.6026 73.2997 79.0273 71.835C83.8095 66.9085 91.1637 67.2122 95.7671 72.3969C100.314 77.5152 100.949 86.0962 96.5665 91.3039C89.7907 99.7589 83.9364 106.174 74.5602 114.418C74.6026 114.45 60.5007 100.699 53.927 92.6469C47.6407 84.9456 49.5215 72.963 57.9192 69.332C62.7154 67.2592 67.1261 68.2556 70.916 72.2328C72.2139 73.5851 73.3142 75.1665 74.8706 77.0991Z" fill="#5772FF"/>
<path d="M74.8753 35.0864C48.9991 35.0864 27.9524 56.0337 27.9524 81.7772C27.9524 90.1241 29.6075 97.1238 32.8708 102.58C34.1828 104.769 35.7344 107.095 37.3849 109.561C43.8692 119.26 51.9427 131.327 52.8126 146.655L52.8926 148.035L59.8753 146.468L59.8048 145.462C58.5822 128.58 49.728 115.339 43.2579 105.663C41.6639 103.277 40.1545 101.021 38.9319 98.9816C36.3269 94.6255 35.0056 88.8376 35.0056 81.7725C35.0056 59.8942 52.8926 42.1001 74.8753 42.1001C96.8628 42.1001 114.745 59.8984 114.745 81.7725C114.745 88.8376 113.423 94.6302 110.818 98.9816C109.558 101.082 107.969 103.422 106.271 105.915C100.563 114.296 93.4631 124.72 90.9098 137.826L90.5665 139.585L98.09 137.896L98.2593 137.185C100.859 126.362 107.094 117.211 112.107 109.851C113.856 107.282 115.507 104.858 116.875 102.575C120.138 97.1191 121.793 90.1199 121.793 81.7725C121.798 56.0337 100.746 35.0864 74.8753 35.0864Z" fill="#5772FF"/>
<path d="M145.017 47.2655L130.121 52.6604C128.292 53.3248 127.347 55.3368 128.015 57.1571C128.683 58.9768 130.704 59.9177 132.533 59.2533L147.43 53.8585C149.259 53.1941 150.204 51.182 149.536 49.3618C148.869 47.5415 146.847 46.6013 145.017 47.2655Z" fill="#5772FF"/>
<path d="M117.581 10.7012C115.817 9.88242 113.716 10.6404 112.893 12.3997L106.192 26.6937C105.369 28.4483 106.131 30.5398 107.899 31.3586C109.662 32.1774 111.764 31.4194 112.587 29.6601L119.288 15.3661C120.11 13.6068 119.349 11.5201 117.581 10.7012Z" fill="#5772FF"/>
<path d="M74.8758 0C72.9291 0 71.3491 1.57211 71.3491 3.50918V19.2818C71.3491 21.2188 72.9291 22.7909 74.8758 22.7909C76.8225 22.7909 78.4024 21.2188 78.4024 19.2818V3.50918C78.4024 1.57211 76.8225 0 74.8758 0Z" fill="#5772FF"/>
<path d="M43.5541 26.6929L36.8535 12.3941C36.0306 10.6396 33.9335 9.87688 32.1655 10.6957C30.4021 11.5145 29.6357 13.6013 30.4586 15.3606L37.1591 29.6546C37.982 31.4092 40.0792 32.1719 41.8472 31.3531C43.6105 30.5342 44.377 28.4474 43.5541 26.6929Z" fill="#5772FF"/>
<path d="M2.32138 53.8585L17.2178 59.2533C19.0469 59.9177 21.0736 58.9768 21.7366 57.1571C22.4043 55.3368 21.4592 53.3201 19.63 52.6604L4.73361 47.2655C2.90445 46.6013 0.877815 47.5415 0.21481 49.3618C-0.452897 51.182 0.487533 53.1988 2.32138 53.8585Z" fill="#5772FF"/>
<path d="M52.2344 165.914L97.5118 155.148V147.596L52.2344 158.362V165.914Z" fill="#5772FF"/>
<path d="M52.2344 181.779L97.5118 171.013V163.461L52.2344 174.227V181.779Z" fill="#5772FF"/>
<path d="M52.2344 197.431L97.5118 186.665V179.113L52.2344 189.879V197.431Z" fill="#5772FF"/>
</g>
<defs>
<clipPath id="clip0">
<rect width="150" height="197.492" fill="white"/>
</clipPath>
</defs>
</svg>
