<svg width="109" height="57" viewBox="0 0 109 57" fill="none" xmlns="http://www.w3.org/2000/svg">
<path d="M31.2997 6.38743C32.7423 4.94483 32.7423 2.60591 31.2997 1.16331C29.8571 -0.27929 27.5182 -0.279291 26.0756 1.16331L1.56242 25.6765C0.119818 27.1191 0.11982 29.458 1.56242 30.9006C3.00502 32.3432 5.34394 32.3432 6.78654 30.9006L31.2997 6.38743Z" fill="white"/>
<path d="M7.99247 25.4341C6.32793 23.7696 3.62919 23.7696 1.96465 25.4341C0.300112 27.0987 0.300113 29.7974 1.96465 31.462L25.6741 55.1715C27.3386 56.836 30.0374 56.836 31.7019 55.1715C33.3665 53.5069 33.3665 50.8082 31.7019 49.1436L7.99247 25.4341Z" fill="white"/>
<path d="M77.3843 6.38743C75.9417 4.94483 75.9417 2.60591 77.3843 1.16331C78.8269 -0.279286 81.1658 -0.279286 82.6084 1.16331L107.122 25.6765C108.564 27.1191 108.564 29.458 107.122 30.9006C105.679 32.3432 103.34 32.3432 101.897 30.9006L77.3843 6.38743Z" fill="white"/>
<path d="M100.691 25.4341C102.356 23.7696 105.055 23.7696 106.719 25.4341C108.384 27.0987 108.384 29.7974 106.719 31.4619L83.0098 55.1714C81.3453 56.8359 78.6465 56.8359 76.982 55.1714C75.3174 53.5068 75.3174 50.8081 76.982 49.1436L100.691 25.4341Z" fill="white"/>
<path d="M65.4822 10.6907C69.3021 10.6907 72.261 12.3944 74.2399 14.6311C76.1692 16.8119 77.2299 19.5692 77.2465 21.8927C77.4235 24.5254 76.5234 27.9718 73.3358 32.3846C70.7145 36.0133 66.5049 40.3561 59.9332 45.5284C59.6117 45.8188 59.3072 46.0969 59.0195 46.3598C58.2669 47.0474 57.6284 47.6307 57.0961 48.0563C56.3475 48.6547 55.4504 49.2536 54.3456 49.2371C53.256 49.2208 52.3637 48.6093 51.609 47.9986C51.075 47.5664 50.4335 46.9787 49.6752 46.2841L49.6739 46.2828C49.3286 45.9666 48.9592 45.6281 48.5647 45.2721L48.5667 45.2699C42.1785 40.2114 38.0629 35.9531 35.484 32.385C32.2944 27.9723 31.3937 24.5258 31.5708 21.8928C31.5874 19.569 32.6488 16.8116 34.5793 14.6309C36.5593 12.3942 39.5198 10.6909 43.3413 10.6909C47.2194 10.6909 50.1528 12.5944 52.1885 14.8432C52.5672 15.2615 52.9179 15.6947 53.2412 16.1344C53.7593 16.785 54.1491 17.3804 54.432 17.9219C55.0195 16.8858 55.7526 15.8237 56.6395 14.8434C58.674 12.5946 61.6059 10.6907 65.4822 10.6907Z" fill="white"/>
</svg>
