<svg width="176" height="91" viewBox="0 0 176 91" fill="none" xmlns="http://www.w3.org/2000/svg" aria-labelledby="live-logo-label">
<title id="live-logo-label">Live series</title>
<path d="M155.599 1.88292L10.2689 27.7967C4.5897 28.8095 0.788807 34.2678 1.76523 40.0087L6.06464 65.2868C6.55813 68.1882 8.22613 70.751 10.6678 72.359L25.8494 82.3571C28.0869 83.8305 30.7969 84.3851 33.4258 83.9077L164.911 60.0217C170.499 59.0065 174.269 53.6803 173.413 48.0112L167.777 10.7069C166.89 4.83441 161.391 0.85018 155.599 1.88292Z" fill="#00A79D"/>
<path d="M27.2773 84.3291L8.43008 71.9859C5.49896 70.0662 6.04345 65.5797 9.34683 64.432L25.387 58.8592C27.8504 58.0034 30.4818 59.6012 30.8889 62.2L33.6961 80.116C34.2629 83.7342 30.3202 86.322 27.2773 84.3291Z" fill="#4FC2BB"/>
<path d="M46.4237 68.3962C45.5657 68.5513 44.7701 68.3857 44.0368 67.8991C43.3305 67.3732 42.9005 66.677 42.747 65.8103L37.4831 36.1128C37.3708 35.4796 37.4908 34.9076 37.8431 34.3967C38.1894 33.8524 38.6759 33.5236 39.303 33.4103C39.9299 33.2969 40.4992 33.4347 41.0111 33.8239C41.5497 34.1735 41.8753 34.6651 41.9874 35.2983L47.0032 63.5959L63.1894 60.6691C63.8163 60.5556 64.3857 60.6936 64.8974 61.0826C65.4361 61.4324 65.7617 61.9238 65.874 62.5572C65.9863 63.1904 65.8497 63.7654 65.4646 64.2824C65.1124 64.7933 64.6227 65.1052 63.9958 65.2186L46.4237 68.3962ZM74.0967 63.6501C73.4699 63.7635 72.9035 63.6422 72.3977 63.2867C71.8919 62.9309 71.5829 62.4364 71.4706 61.8032L66.0028 30.9557C65.8908 30.3225 66.0106 29.7504 66.3628 29.2396C66.7092 28.6953 67.1957 28.3664 67.8228 28.2532C68.4497 28.1397 69.0189 28.2775 69.5308 28.6667C70.0695 29.0163 70.3951 29.5079 70.5072 30.1411L75.9749 60.9886C76.0872 61.6218 75.9508 62.1968 75.5655 62.7138C75.2133 63.2247 74.7239 63.5368 74.0967 63.6501ZM97.8144 59.3612C96.4615 59.6061 95.3027 59.0243 94.3378 57.6165L76.8036 29.8797C76.6573 29.6311 76.5576 29.3566 76.5044 29.0567C76.3803 28.3569 76.4807 27.7711 76.8059 27.2994C77.125 26.7946 77.6312 26.4795 78.3241 26.3542C78.7861 26.2706 79.2253 26.346 79.6414 26.5802C80.0847 26.7754 80.4466 27.0884 80.7273 27.519L97.5525 54.7132L103.992 23.3123C104.107 22.8099 104.322 22.3926 104.638 22.0601C104.981 21.6887 105.383 21.461 105.845 21.3776C106.538 21.2521 107.121 21.3704 107.594 21.7321C108.061 22.0605 108.356 22.5746 108.48 23.2746C108.534 23.5745 108.535 23.8668 108.483 24.1514L101.565 56.3095C101.144 57.9681 100.256 58.9197 98.9033 59.1644L97.8144 59.3612ZM122.536 54.633C121.909 54.7462 121.343 54.6252 120.837 54.2694C120.331 53.9137 120.022 53.4191 119.91 52.7859L114.531 22.4385C114.419 21.8051 114.539 21.233 114.891 20.7222C115.237 20.178 115.724 19.8493 116.351 19.7359L136.2 16.1466C136.794 16.0392 137.327 16.1663 137.8 16.528C138.3 16.8504 138.603 17.3116 138.709 17.9115C138.816 18.5115 138.69 19.0503 138.332 19.5278C138.006 19.9994 137.547 20.2888 136.953 20.3962L119.381 23.5739L121.339 34.6227L137.129 31.7675C137.723 31.6602 138.257 31.7874 138.729 32.149C139.229 32.4713 139.533 32.9325 139.639 33.5324C139.745 34.1324 139.619 34.6712 139.261 35.1486C138.936 35.6204 138.477 35.9099 137.882 36.0172L122.093 38.8724L124.06 49.9715L141.632 46.7941C142.226 46.6866 142.759 46.8138 143.232 47.1755C143.732 47.4978 144.035 47.9591 144.141 48.5589C144.248 49.1588 144.122 49.6976 143.764 50.1753C143.439 50.6468 142.979 50.9363 142.385 51.0436L122.536 54.633Z" fill="white"/>
<path d="M44.0365 67.8991L43.4148 68.7507L43.4376 68.7676L43.4613 68.7835L44.0365 67.8991ZM37.8427 34.3967L38.7024 35.0013L38.7135 34.9853L38.724 34.9688L37.8427 34.3967ZM41.0107 33.8239L40.3807 34.6691L40.4115 34.6928L40.4442 34.714L41.0107 33.8239ZM47.0029 63.5959L45.9718 63.7825L46.1564 64.8239L47.1875 64.6375L47.0029 63.5959ZM64.8971 61.0826L64.267 61.928L64.298 61.9515L64.3307 61.9727L64.8971 61.0826ZM65.4642 64.2824L64.6272 63.646L64.6155 63.6615L64.6046 63.6776L65.4642 64.2824ZM46.2388 67.3546C45.6466 67.4617 45.1226 67.3537 44.6116 67.0147L43.4613 68.7835C44.417 69.4175 45.4843 69.641 46.6079 69.4379L46.2388 67.3546ZM44.6581 67.0473C44.1659 66.681 43.8839 66.222 43.7779 65.6239L41.7156 65.9968C41.9167 67.132 42.4944 68.0655 43.4148 68.7507L44.6581 67.0473ZM43.7779 65.6239L38.514 35.9264L36.4515 36.2993L41.7156 65.9968L43.7779 65.6239ZM38.514 35.9264C38.4489 35.559 38.5149 35.2733 38.7024 35.0013L36.983 33.7919C36.4661 34.5417 36.2922 35.4001 36.4515 36.2993L38.514 35.9264ZM38.724 34.9688C38.9138 34.6706 39.1489 34.5131 39.4873 34.4517L39.1179 32.3687C38.2025 32.5342 37.4641 33.0345 36.9615 33.8245L38.724 34.9688ZM39.4873 34.4517C39.8257 34.3906 40.1001 34.456 40.3807 34.6691L41.6408 32.9784C40.8978 32.4136 40.0335 32.2032 39.1179 32.3687L39.4873 34.4517ZM40.4442 34.714C40.7394 34.9057 40.8953 35.1429 40.956 35.4849L43.0184 35.1118C42.8545 34.1872 42.3594 33.4414 41.5771 32.9337L40.4442 34.714ZM40.956 35.4849L45.9718 63.7825L48.0342 63.4094L43.0184 35.1118L40.956 35.4849ZM47.1875 64.6375L63.3736 61.7107L63.0044 59.6274L46.8183 62.5545L47.1875 64.6375ZM63.3736 61.7107C63.712 61.6495 63.9867 61.7147 64.267 61.928L65.5271 60.2371C64.7841 59.6723 63.9198 59.4619 63.0044 59.6274L63.3736 61.7107ZM64.3307 61.9727C64.6259 62.1644 64.7818 62.4019 64.8424 62.7436L66.9049 62.3708C66.7409 61.4459 66.2458 60.7002 65.4634 60.1925L64.3307 61.9727ZM64.8424 62.7436C64.9029 63.0854 64.8384 63.3627 64.6272 63.646L66.3013 64.9188C66.8605 64.1683 67.0688 63.2954 66.9049 62.3708L64.8424 62.7436ZM64.6046 63.6776C64.4168 63.9497 64.1746 64.1114 63.8109 64.177L64.1801 66.2603C65.0703 66.0992 65.8072 65.6366 66.3239 64.887L64.6046 63.6776ZM63.8109 64.177L46.2388 67.3546L46.6079 69.4379L64.1801 66.2603L63.8109 64.177ZM72.3974 63.2867L72.996 62.4182L72.3974 63.2867ZM66.3625 29.2396L67.2221 29.8442L67.2333 29.8281L67.2437 29.8116L66.3625 29.2396ZM69.5305 28.6667L68.9004 29.5119L68.9314 29.5356L68.9639 29.5568L69.5305 28.6667ZM75.5652 62.7138L74.7283 62.0774L74.7166 62.0931L74.7055 62.1092L75.5652 62.7138ZM73.9118 62.6086C73.5481 62.6742 73.2654 62.6078 72.996 62.4182L71.7988 64.155C72.5409 64.6769 73.391 64.8527 74.2812 64.6917L73.9118 62.6086ZM72.996 62.4182C72.7265 62.2288 72.5667 61.9839 72.5015 61.6165L70.439 61.9896C70.5984 62.8888 71.0564 63.6329 71.7988 64.155L72.996 62.4182ZM72.5015 61.6165L67.0338 30.7692L64.9714 31.1421L70.439 61.9896L72.5015 61.6165ZM67.0338 30.7692C66.9686 30.4018 67.0346 30.1161 67.2221 29.8442L65.5028 28.6347C64.9859 29.3845 64.812 30.2429 64.9714 31.1421L67.0338 30.7692ZM67.2437 29.8116C67.4336 29.5134 67.6686 29.356 68.007 29.2946L67.6378 27.2115C66.7222 27.377 65.9839 27.8771 65.4812 28.6673L67.2437 29.8116ZM68.007 29.2946C68.3454 29.2334 68.6199 29.2988 68.9004 29.5119L70.1605 27.8212C69.4175 27.2564 68.5533 27.046 67.6378 27.2115L68.007 29.2946ZM68.9639 29.5568C69.2594 29.7485 69.4152 29.9858 69.4758 30.3275L71.5381 29.9547C71.3743 29.0301 70.8792 28.2843 70.0968 27.7764L68.9639 29.5568ZM69.4758 30.3275L74.9435 61.1751L77.0059 60.8022L71.5381 29.9547L69.4758 30.3275ZM74.9435 61.1751C75.0041 61.5168 74.9393 61.7941 74.7283 62.0774L76.4022 63.3502C76.9614 62.5997 77.1697 61.7268 77.0059 60.8022L74.9435 61.1751ZM74.7055 62.1092C74.518 62.3811 74.2756 62.5428 73.9118 62.6086L74.2812 64.6917C75.1713 64.5306 75.9082 64.068 76.4251 63.3184L74.7055 62.1092ZM94.3375 57.6165L93.4545 58.1858L93.465 58.2025L93.4761 58.2186L94.3375 57.6165ZM76.8033 29.8797L75.9025 30.42L75.9111 30.4348L75.9201 30.4492L76.8033 29.8797ZM76.8056 27.2994L77.6652 27.9042L77.6772 27.8868L77.6885 27.8689L76.8056 27.2994ZM79.641 26.5802L79.1309 27.5046L79.1757 27.5298L79.2226 27.5504L79.641 26.5802ZM80.727 27.519L81.6156 26.9582L81.6022 26.9375L80.727 27.519ZM97.5522 54.7132L96.6638 55.274L98.0481 57.5116L98.578 54.9278L97.5522 54.7132ZM103.991 23.3123L102.97 23.0734L102.965 23.0977L103.991 23.3123ZM104.638 22.0601L105.394 22.793L105.404 22.7815L104.638 22.0601ZM107.594 21.7321L106.961 22.5756L106.978 22.5883L106.995 22.6004L107.594 21.7321ZM108.482 24.1514L109.506 24.3759L109.51 24.3592L109.513 24.3425L108.482 24.1514ZM101.564 56.3095L102.579 56.5726L102.584 56.5535L102.588 56.5343L101.564 56.3095ZM97.6295 58.3198C97.1598 58.4046 96.7617 58.3443 96.3965 58.1611C96.0172 57.9706 95.611 57.6153 95.199 57.0142L93.4761 58.2186C94.029 59.0253 94.6844 59.6649 95.4641 60.0562C96.2577 60.4545 97.1155 60.5626 97.9987 60.4028L97.6295 58.3198ZM95.2206 57.0471L77.6862 29.3103L75.9201 30.4492L93.4545 58.1858L95.2206 57.0471ZM77.704 29.3395C77.6252 29.2055 77.5674 29.0521 77.5353 28.8703L75.4728 29.2432C75.547 29.6613 75.6886 30.0564 75.9025 30.42L77.704 29.3395ZM77.5353 28.8703C77.4478 28.377 77.5349 28.0932 77.6652 27.9042L75.9459 26.6947C75.4261 27.4488 75.3121 28.3365 75.4728 29.2432L77.5353 28.8703ZM77.6885 27.8689C77.8209 27.6593 78.0447 27.4797 78.5084 27.3957L78.1392 25.3126C77.2171 25.4794 76.4286 25.9297 75.9226 26.7301L77.6885 27.8689ZM78.5084 27.3957C78.7286 27.3559 78.9226 27.3872 79.1309 27.5046L80.1512 25.6561C79.5273 25.3048 78.8432 25.1852 78.1392 25.3126L78.5084 27.3957ZM79.2226 27.5504C79.4688 27.6587 79.6762 27.8314 79.8518 28.1008L81.6022 26.9375C81.2162 26.3453 80.6998 25.892 80.0595 25.6101L79.2226 27.5504ZM79.8386 28.0798L96.6638 55.274L98.4406 54.1524L81.6154 26.9584L79.8386 28.0798ZM98.578 54.9278L105.017 23.5269L102.965 23.0977L96.5264 54.4986L98.578 54.9278ZM105.012 23.5512C105.09 23.2116 105.224 22.9718 105.394 22.793L103.882 21.3274C103.421 21.8133 103.123 22.408 102.971 23.0734L105.012 23.5512ZM105.404 22.7815C105.604 22.5648 105.807 22.4592 106.03 22.419L105.661 20.3359C104.959 20.4628 104.357 20.8125 103.871 21.3389L105.404 22.7815ZM106.03 22.419C106.493 22.3352 106.765 22.4256 106.961 22.5756L108.226 20.8886C107.477 20.3153 106.583 20.1692 105.661 20.3359L106.03 22.419ZM106.995 22.6004C107.182 22.7322 107.361 22.9678 107.449 23.4611L109.511 23.088C109.351 22.1814 108.939 21.3888 108.192 20.8637L106.995 22.6004ZM107.449 23.4611C107.481 23.6429 107.48 23.8071 107.452 23.9603L109.513 24.3425C109.588 23.9264 109.586 23.5061 109.511 23.088L107.449 23.4611ZM107.459 23.9266L100.541 56.085L102.588 56.5343L109.506 24.3759L107.459 23.9266ZM100.55 56.0467C100.37 56.7548 100.111 57.2303 99.8205 57.5418C99.5408 57.8417 99.1884 58.0379 98.7184 58.1227L99.0878 60.206C99.9709 60.0462 100.738 59.6444 101.346 58.9925C101.943 58.3524 102.338 57.523 102.579 56.5726L100.55 56.0467ZM98.7184 58.1227L97.6295 58.3198L97.9987 60.4028L99.0878 60.206L98.7184 58.1227ZM120.837 54.2694L121.435 53.4011L120.837 54.2694ZM114.89 20.7222L115.75 21.3268L115.761 21.3107L115.772 21.2944L114.89 20.7222ZM137.799 16.528L137.167 17.3715L137.2 17.3971L137.236 17.4199L137.799 16.528ZM138.331 19.5278L137.496 18.8889L137.483 18.9058L137.471 18.9231L138.331 19.5278ZM119.38 23.5739L119.196 22.5322L118.165 22.7187L118.349 23.7603L119.38 23.5739ZM121.339 34.6227L120.308 34.8094L120.492 35.8508L121.524 35.6644L121.339 34.6227ZM138.729 32.149L138.097 32.9926L138.13 33.018L138.165 33.0408L138.729 32.149ZM139.261 35.1486L138.426 34.5099L138.413 34.5267L138.401 34.544L139.261 35.1486ZM122.092 38.8724L121.907 37.8308L120.876 38.0175L121.061 39.0589L122.092 38.8724ZM124.059 49.9715L123.028 50.1579L123.213 51.1996L124.244 51.0131L124.059 49.9715ZM143.232 47.1755L142.599 48.019L142.632 48.0446L142.668 48.0673L143.232 47.1755ZM143.763 50.1753L142.928 49.5364L142.916 49.5531L142.904 49.5707L143.763 50.1753ZM122.351 53.5914C121.987 53.6572 121.705 53.5905 121.435 53.4011L120.238 55.1377C120.98 55.6598 121.83 55.8355 122.72 55.6744L122.351 53.5914ZM121.435 53.4011C121.166 53.2115 121.006 52.9669 120.941 52.5995L118.878 52.9724C119.038 53.8716 119.496 54.6159 120.238 55.1377L121.435 53.4011ZM120.941 52.5995L115.562 22.252L113.499 22.6249L118.878 52.9724L120.941 52.5995ZM115.562 22.252C115.497 21.8846 115.562 21.599 115.75 21.3268L114.031 20.1176C113.514 20.8672 113.34 21.7257 113.499 22.6249L115.562 22.252ZM115.772 21.2944C115.961 20.9961 116.196 20.8387 116.535 20.7775L116.166 18.6943C115.25 18.8599 114.512 19.36 114.009 20.1501L115.772 21.2944ZM116.535 20.7775L136.384 17.1882L136.015 15.105L116.166 18.6943L116.535 20.7775ZM136.384 17.1882C136.696 17.1318 136.932 17.1917 137.167 17.3715L138.432 15.6845C137.721 15.141 136.891 14.9466 136.015 15.105L136.384 17.1882ZM137.236 17.4199C137.484 17.5802 137.622 17.783 137.677 18.098L139.74 17.7251C139.583 16.8402 139.114 16.1206 138.363 15.6362L137.236 17.4199ZM137.677 18.098C137.733 18.413 137.674 18.6514 137.496 18.8889L139.166 20.1667C139.704 19.4491 139.897 18.61 139.74 17.7251L137.677 18.098ZM137.471 18.9231C137.315 19.1493 137.107 19.2934 136.768 19.3547L137.137 21.4379C137.986 21.2843 138.697 20.8494 139.191 20.1324L137.471 18.9231ZM136.768 19.3547L119.196 22.5322L119.565 24.6153L137.137 21.4379L136.768 19.3547ZM118.349 23.7603L120.308 34.8094L122.37 34.4363L120.412 23.3872L118.349 23.7603ZM121.524 35.6644L137.314 32.8091L136.944 30.726L121.154 33.5813L121.524 35.6644ZM137.314 32.8091C137.626 32.7528 137.861 32.8127 138.097 32.9926L139.362 31.3055C138.651 30.762 137.821 30.5675 136.944 30.726L137.314 32.8091ZM138.165 33.0408C138.414 33.2012 138.551 33.404 138.607 33.7189L140.67 33.346C140.513 32.4612 140.044 31.7416 139.293 31.2572L138.165 33.0408ZM138.607 33.7189C138.663 34.034 138.604 34.2723 138.426 34.5099L140.096 35.7875C140.634 35.0699 140.827 34.2308 140.67 33.346L138.607 33.7189ZM138.401 34.544C138.245 34.7702 138.037 34.9144 137.698 34.9755L138.067 37.0588C138.916 36.9051 139.626 36.4703 140.121 35.7535L138.401 34.544ZM137.698 34.9755L121.907 37.8308L122.277 39.9141L138.067 37.0588L137.698 34.9755ZM121.061 39.0589L123.028 50.1579L125.091 49.785L123.123 38.686L121.061 39.0589ZM124.244 51.0131L141.816 47.8355L141.447 45.7525L123.875 48.9301L124.244 51.0131ZM141.816 47.8355C142.128 47.7792 142.364 47.8391 142.599 48.019L143.864 46.3319C143.154 45.7884 142.323 45.594 141.447 45.7525L141.816 47.8355ZM142.668 48.0673C142.916 48.2277 143.054 48.4304 143.11 48.7455L145.172 48.3724C145.015 47.4876 144.547 46.7681 143.796 46.2837L142.668 48.0673ZM143.11 48.7455C143.166 49.0604 143.106 49.2989 142.928 49.5364L144.598 50.814C145.137 50.0965 145.329 49.2574 145.172 48.3724L143.11 48.7455ZM142.904 49.5707C142.748 49.7967 142.539 49.9408 142.2 50.0022L142.569 52.0852C143.418 51.9318 144.129 51.4967 144.623 50.7799L142.904 49.5707ZM142.2 50.0022L122.351 53.5914L122.72 55.6744L142.569 52.0852L142.2 50.0022Z" fill="white"/>
</svg>
