<svg width="194" height="120" viewBox="0 0 194 120" fill="none" xmlns="http://www.w3.org/2000/svg">
<g clip-path="url(#clip0)">
<path d="M151.81 90.56C151.81 93.3214 154.049 95.56 156.81 95.56C159.571 95.56 161.81 93.3214 161.81 90.56V52.59C161.81 49.8286 159.571 47.59 156.81 47.59C154.049 47.59 151.81 49.8286 151.81 52.59V90.56Z" fill="#A1E4D4"/>
<path d="M168.18 97.83C168.18 100.591 170.419 102.83 173.18 102.83C175.941 102.83 178.18 100.591 178.18 97.83V30.45C178.18 27.6886 175.941 25.45 173.18 25.45C170.419 25.45 168.18 27.6886 168.18 30.45V97.83Z" fill="#8600F0"/>
<path d="M183.04 67.95C183.04 70.7114 185.279 72.95 188.04 72.95C190.801 72.95 193.04 70.7114 193.04 67.95V37.45C193.04 34.6886 190.801 32.45 188.04 32.45C185.279 32.45 183.04 34.6886 183.04 37.45V67.95Z" fill="#A1E4D4"/>
<path d="M41.8101 21.26C41.8101 18.4986 39.5715 16.26 36.8101 16.26C34.0486 16.26 31.8101 18.4986 31.8101 21.26V67.23C31.8101 69.9914 34.0486 72.23 36.8101 72.23C39.5715 72.23 41.8101 69.9914 41.8101 67.23V21.26Z" fill="#A1E4D4"/>
<path d="M25 16.44C25 13.6786 22.7614 11.44 20 11.44C17.2386 11.44 15 13.6786 15 16.44V83.82C15 86.5814 17.2386 88.82 20 88.82C22.7614 88.82 25 86.5814 25 83.82V16.44Z" fill="#8600F0"/>
<path d="M10 51.7C10 48.9386 7.76142 46.7 5 46.7C2.23858 46.7 0 48.9386 0 51.7V72.2C0 74.9614 2.23858 77.2 5 77.2C7.76142 77.2 10 74.9614 10 72.2V51.7Z" fill="#A1E4D4"/>
<path d="M54.0999 33.01H53.3999C52.0192 33.01 50.8999 34.1293 50.8999 35.51V84.13C50.8999 85.5107 52.0192 86.63 53.3999 86.63H54.0999C55.4806 86.63 56.5999 85.5107 56.5999 84.13V35.51C56.5999 34.1293 55.4806 33.01 54.0999 33.01Z" fill="#555595"/>
<path d="M66.43 42.63H65.73C64.3493 42.63 63.23 43.7493 63.23 45.13V74.96C63.23 76.3407 64.3493 77.46 65.73 77.46H66.43C67.8107 77.46 68.93 76.3407 68.93 74.96V45.13C68.93 43.7493 67.8107 42.63 66.43 42.63Z" fill="#555595"/>
<path d="M78.3699 31.42H77.6699C76.2892 31.42 75.1699 32.5393 75.1699 33.92V86.09C75.1699 87.4707 76.2892 88.59 77.6699 88.59H78.3699C79.7506 88.59 80.8699 87.4707 80.8699 86.09V33.92C80.8699 32.5393 79.7506 31.42 78.3699 31.42Z" fill="#555595"/>
<path d="M91.77 53.64H88.53C87.8507 53.64 87.3 54.1907 87.3 54.87V65.36C87.3 66.0393 87.8507 66.59 88.53 66.59H91.77C92.4494 66.59 93 66.0393 93 65.36V54.87C93 54.1907 92.4494 53.64 91.77 53.64Z" fill="#555595"/>
<path d="M102.68 33.89H101.98C100.599 33.89 99.48 35.0093 99.48 36.39V83.54C99.48 84.9207 100.599 86.04 101.98 86.04H102.68C104.061 86.04 105.18 84.9207 105.18 83.54V36.39C105.18 35.0093 104.061 33.89 102.68 33.89Z" fill="#555595"/>
<path d="M114.77 11.44H114.07C112.689 11.44 111.57 12.5593 111.57 13.94V105.4C111.57 106.781 112.689 107.9 114.07 107.9H114.77C116.151 107.9 117.27 106.781 117.27 105.4V13.94C117.27 12.5593 116.151 11.44 114.77 11.44Z" fill="#555595"/>
<path d="M127 33.75H126.3C124.919 33.75 123.8 34.8693 123.8 36.25V83.4C123.8 84.7807 124.919 85.9 126.3 85.9H127C128.381 85.9 129.5 84.7807 129.5 83.4V36.25C129.5 34.8693 128.381 33.75 127 33.75Z" fill="#555595"/>
<path d="M96.52 120C129.657 120 156.52 93.1371 156.52 60C156.52 26.8629 129.657 0 96.52 0C63.3829 0 36.52 26.8629 36.52 60C36.52 93.1371 63.3829 120 96.52 120Z" fill="#0802BB"/>
<path d="M153.81 42.13C151.677 35.2993 148.334 28.9077 143.94 23.26H110.08C107.253 23.26 104.541 24.3831 102.542 26.3823C100.543 28.3814 99.4199 31.0928 99.4199 33.92V33.92C99.4199 36.7472 100.543 39.4586 102.542 41.4578C104.541 43.4569 107.253 44.58 110.08 44.58H147C149.487 44.5876 151.898 43.7203 153.81 42.13V42.13Z" fill="#00A79D"/>
<path d="M139.73 98.78H122.6C121.983 98.7511 121.366 98.8478 120.787 99.0641C120.208 99.2805 119.679 99.6121 119.231 100.039C118.784 100.466 118.428 100.979 118.185 101.547C117.942 102.115 117.816 102.727 117.816 103.345C117.816 103.963 117.942 104.575 118.185 105.143C118.428 105.711 118.784 106.224 119.231 106.651C119.679 107.078 120.208 107.41 120.787 107.626C121.366 107.842 121.983 107.939 122.6 107.91H132.77C136.112 105.382 139.182 102.514 141.93 99.35C141.257 98.9774 140.5 98.7813 139.73 98.78Z" fill="#00A79D"/>
<path d="M74.88 65.3H42.15C40.3181 65.3076 38.5282 65.8498 37 66.86C37.678 72.8222 39.2525 78.6479 41.67 84.14H42.19H74.88C76.1184 84.14 77.3446 83.8961 78.4887 83.4222C79.6328 82.9483 80.6724 82.2537 81.548 81.378C82.4237 80.5023 83.1183 79.4628 83.5922 78.3187C84.0661 77.1746 84.31 75.9483 84.31 74.71V74.71C84.3047 72.2125 83.3088 69.819 81.541 68.0549C79.7731 66.2907 77.3775 65.3 74.88 65.3V65.3Z" fill="#00A79D"/>
<path d="M49.9299 21.93C50.2921 22.7047 50.867 23.3604 51.5876 23.8207C52.3082 24.2811 53.1448 24.5271 53.9999 24.53H72.1899C73.3834 24.53 74.528 24.0559 75.3719 23.212C76.2158 22.3681 76.6899 21.2235 76.6899 20.03C76.6899 18.8366 76.2158 17.692 75.3719 16.848C74.528 16.0041 73.3834 15.53 72.1899 15.53H55.9999C53.8248 17.5141 51.7962 19.653 49.9299 21.93V21.93Z" fill="#00A79D"/>
<path d="M115 2.90997H101C100.082 2.90997 99.2023 3.27451 98.5535 3.92338C97.9046 4.57226 97.54 5.45232 97.54 6.36997C97.54 7.28762 97.9046 8.16769 98.5535 8.81656C99.2023 9.46544 100.082 9.82997 101 9.82997H129.39C124.924 6.89167 120.084 4.56434 115 2.90997V2.90997Z" fill="white"/>
<path d="M152 62.53H106C104.886 62.4914 103.776 62.6773 102.736 63.0767C101.696 63.4762 100.747 64.081 99.9456 64.8551C99.1442 65.6291 98.5068 66.5567 98.0715 67.5823C97.6362 68.608 97.4119 69.7108 97.4119 70.825C97.4119 71.9392 97.6362 73.0421 98.0715 74.0677C98.5068 75.0934 99.1442 76.0209 99.9456 76.795C100.747 77.5691 101.696 78.1739 102.736 78.5733C103.776 78.9728 104.886 79.1587 106 79.12H152C152.527 79.1211 153.053 79.0709 153.57 78.97C155.201 74.0855 156.189 69.0096 156.51 63.87C155.168 62.9961 153.601 62.5306 152 62.53V62.53Z" fill="white"/>
<path d="M96.5199 109.53C96.5199 108.167 95.9784 106.859 95.0144 105.895C94.0505 104.932 92.7431 104.39 91.3799 104.39H56.1499C60.7995 108.615 66.0839 112.084 71.8099 114.67H91.3799C92.7431 114.67 94.0505 114.128 95.0144 113.165C95.9784 112.201 96.5199 110.893 96.5199 109.53Z" fill="white"/>
<path d="M74.8 29.24H45C42.838 32.863 41.0648 36.7043 39.71 40.7C40.6123 41.1908 41.6228 41.4486 42.65 41.45H74.8C76.3764 41.3862 77.867 40.7151 78.9598 39.5771C80.0526 38.4392 80.6628 36.9227 80.6628 35.345C80.6628 33.7673 80.0526 32.2508 78.9598 31.1128C77.867 29.9749 76.3764 29.3038 74.8 29.24V29.24Z" fill="white"/>
<path opacity="0.31" d="M58.75 56.54C58.7486 44.1747 62.5677 32.1108 69.6848 21.999C76.8019 11.8872 86.8694 4.22128 98.51 0.0500284H96.51C87.7529 0.0398397 79.0997 1.94669 71.1579 5.63669C63.2162 9.32669 56.1784 14.7104 50.5388 21.4098C44.8992 28.1092 40.7944 35.9619 38.5127 44.4165C36.231 52.8712 35.8276 61.7228 37.3309 70.35C38.8342 78.9771 42.2077 87.1706 47.2146 94.3552C52.2215 101.54 58.7405 107.541 66.3137 111.938C73.8869 116.335 82.3308 119.021 91.0525 119.808C99.7743 120.594 108.562 119.462 116.8 116.49C101.236 115.984 86.4785 109.447 75.646 98.2596C64.8135 87.0725 58.7547 72.1122 58.75 56.54V56.54Z" fill="white"/>
</g>
<defs>
<clipPath id="clip0">
<rect width="193.04" height="120" fill="white"/>
</clipPath>
</defs>
</svg>
