<svg width="554" height="552" viewBox="0 0 554 552" fill="none" xmlns="http://www.w3.org/2000/svg">
<circle cx="292.5" cy="220.5" r="175.5" fill="#A1E4D4"/>
<circle cx="264" cy="256" r="27" fill="#00A79D"/>
<rect x="61.7264" y="90.1764" width="184.072" height="367.525" rx="16" transform="rotate(-2.04226 61.7264 90.1764)" fill="#240E6A" stroke="#F2F2F2" stroke-width="8"/>
<path d="M104.607 92.0364L201.812 88.5701L201.892 90.8059C202.187 99.0849 195.715 106.036 187.436 106.331L120.211 108.728C111.932 109.023 104.982 102.551 104.686 94.2721L104.607 92.0364Z" fill="#F2F2F2"/>
<path fill-rule="evenodd" clip-rule="evenodd" d="M239.775 166.135C242.431 174.489 246.531 181 249.722 182.614C257.723 186.661 279.282 163.32 282.496 149.477C285.711 135.635 263.36 108.744 245.681 126.239C239.545 132.311 237.191 140.471 237.068 148.708L200.411 175.936L221.319 194.296L239.775 166.135Z" fill="#B28B67"/>
<path fill-rule="evenodd" clip-rule="evenodd" d="M283.233 139.135C283.005 138.429 282.533 136.946 282.217 136.282C282.143 136.124 281.829 134.785 281.8 134.773C280.974 134.428 278.434 133.602 277.674 134.149C277.604 134.179 277.537 134.207 277.476 134.229C276.798 134.474 276.13 134.751 275.469 135.042C274.017 135.683 272.592 136.433 271.193 137.192C268.469 138.668 265.806 140.288 263.196 141.963C260.538 143.668 257.956 145.487 255.322 147.23C251.533 149.738 247.564 151.945 243.782 154.458C241.367 156.062 239.182 157.912 237.431 160.208C237.409 160.235 237.388 160.261 237.367 160.29C237.358 160.302 237.35 160.313 237.342 160.325C237.075 160.68 236.818 161.045 236.572 161.422C236.363 161.745 236.154 162.07 235.947 162.396C238.183 161.489 240.371 160.248 242.518 159.132C242.728 159.022 242.937 158.909 243.144 158.794C243.658 158.637 244.174 158.486 244.692 158.338C247.955 157.406 251.217 156.487 254.457 155.467C260.286 153.632 266.165 151.695 272.153 150.569C273.922 150.236 275.695 149.937 277.461 149.587C278.465 149.387 279.467 149.167 280.463 148.922C281.176 148.748 283.931 148.377 284.265 146.994C284.436 146.287 283.825 140.968 283.233 139.135Z" fill="#2C2C2C"/>
<path fill-rule="evenodd" clip-rule="evenodd" d="M282.299 136.494C282.627 137.059 283.252 135.891 283.1 135.154C282.398 131.739 274.912 124.149 266.691 119.487C261.185 116.364 253.655 114.014 247.218 113.841C241.415 113.685 235.182 116.131 230.202 119.408C224.972 122.849 220.631 127.412 217.241 132.673C216.497 133.828 215.969 135.09 215.274 136.25C214.491 137.557 213.644 138.734 213.049 140.152C212.685 141.02 212.489 142.013 212.088 142.855C211.631 143.817 210.872 144.412 210.025 145.055C208.645 146.103 207.204 147.093 205.676 147.91C203.381 149.136 201.041 150.117 198.85 151.556C195.935 153.472 185.801 159.137 185.961 163.248L226.487 198.834C227.911 195.154 227.724 189.188 229.721 185.664C230.897 183.588 234.089 179.602 234.173 179.429C238.788 172.332 239.645 167.76 239.486 165.688C239.327 163.616 238.134 161.975 238.889 160.961C242.009 156.769 246.859 154.385 251.208 151.734C256.391 148.575 261.306 144.989 266.518 141.881C268.827 140.505 280.595 133.557 282.299 136.494Z" fill="#8991DC"/>
<path fill-rule="evenodd" clip-rule="evenodd" d="M250.26 141.24C255.749 134.326 258.35 132.027 264.136 128.52L263.194 127.692C260.015 128.308 253.6 133.1 249.51 140.582L250.26 141.24ZM232.067 124.712L232.067 124.712L232.067 124.711C232.256 124.165 232.449 123.605 232.646 123.03L231.794 122.792C227.613 131.365 225.226 138.721 229.192 150.128L230.183 150.237C227.327 138.431 229.166 133.107 232.067 124.712ZM249.211 128.227L249.21 128.228C242.654 137.983 238.496 144.169 235.977 159.797L235.068 159.387C236.336 143.955 241.932 135.366 249.805 125.739L250.522 126.273C250.074 126.942 249.637 127.592 249.211 128.227ZM218.762 148.665L217.494 148.872C220.002 152.213 220.107 156.307 220.227 161C220.354 165.966 220.498 171.602 223.524 177.728L224.874 177.968C222.059 170.726 222 165.934 221.948 161.75C221.894 157.418 221.849 153.737 218.762 148.665Z" fill="black" fill-opacity="0.2"/>
<mask id="mask0" mask-type="alpha" maskUnits="userSpaceOnUse" x="65" y="88" width="190" height="366">
<rect x="70.0148" y="98.6091" width="167.627" height="351.285" rx="8" transform="rotate(-2.04226 70.0148 98.6091)" fill="#240E6A" stroke="#F2F2F2" stroke-width="8"/>
<rect x="108.881" y="100.292" width="88.9393" height="16.4918" rx="8.24588" transform="rotate(-2.04226 108.881 100.292)" fill="#F2F2F2"/>
</mask>
<g mask="url(#mask0)">
<path fill-rule="evenodd" clip-rule="evenodd" d="M127.392 268.727L135.647 397.113L129.264 503.121L143.172 506.416L176.912 280.459L127.392 268.727Z" fill="#997659"/>
<path fill-rule="evenodd" clip-rule="evenodd" d="M114.292 265.623C101.207 331.94 90.2474 365.149 88.276 370.989C86.3045 376.829 69.5083 413.743 34.114 482.694L50.14 481.116C94.5702 420.713 112.558 388.112 117.918 380.068C123.278 372.024 140.459 338.233 169.461 278.694L114.292 265.623Z" fill="#B28B67"/>
<path fill-rule="evenodd" clip-rule="evenodd" d="M122.527 267.574L123.645 332.254L171.199 343.521L178.559 280.85L122.527 267.574Z" fill="#69A1AC"/>
<path fill-rule="evenodd" clip-rule="evenodd" d="M113.769 265.499C100.628 286.712 96.3995 325.798 96.3995 325.798L144.926 337.296L172.721 279.466L113.769 265.499Z" fill="#89C5CC"/>
<path fill-rule="evenodd" clip-rule="evenodd" d="M47.8734 262.846C54.7554 259.099 112.135 209.366 112.135 209.366L125.912 221.773C125.912 221.773 60.0801 271.515 55.919 274.16C50.5135 277.595 47.5442 286.936 45.5307 293.27C45.2192 294.25 44.9306 295.158 44.6594 295.961C41.0699 295.145 41.2249 292.405 41.3883 289.517C41.5729 286.256 41.7682 282.804 36.5909 281.72C34.5907 281.301 32.5476 281.092 30.5515 280.888C23.6567 280.183 17.3227 279.536 15.2518 270.48C14.9235 269.045 15.99 265.69 19.8462 265.761C29.4535 265.936 44.509 264.677 47.8734 262.846ZM233.729 339.392L224.269 295.849L205.887 309.179L222.53 342.046C222.345 358.235 223.317 365.771 225.448 364.655C227.244 363.714 227.66 361.884 228.044 360.198C228.343 358.885 228.622 357.66 229.518 357.01C231.563 355.527 236.371 359.452 240.751 363.418C245.131 367.385 245.586 363.789 245.354 361.671C243.065 354.548 239.19 347.121 233.729 339.392Z" fill="#B28B67"/>
<path fill-rule="evenodd" clip-rule="evenodd" d="M224.568 173.615L236.559 175.786C224.98 223.208 220.592 273.358 232.915 325.753L214.434 337.448C198.64 299.328 181.533 266.687 189.643 229.4C192.364 216.886 216.622 185.641 224.568 173.615Z" fill="#C5CFD6"/>
<path fill-rule="evenodd" clip-rule="evenodd" d="M122.421 263.53C122.421 263.53 160.327 294.611 187.297 304.146C189.525 304.934 192.309 301.172 193.083 297.921C205.135 247.287 218.288 204.757 236.463 175.726C231.096 175.661 222.421 167.922 222.421 167.922C186.288 186.944 156.797 216.263 122.421 263.53Z" fill="#323337"/>
<path fill-rule="evenodd" clip-rule="evenodd" d="M219.003 162.292C219.681 162.208 220.033 162.174 220.033 162.174L219.664 162.706L226.917 167.247C225.66 170.065 220.183 179.999 212.197 194.485C183.179 247.125 121.028 359.866 107.82 409.632L18.8512 353.932C50.4049 307.706 100.356 260.074 145.471 221.32C126.095 227.69 99.2354 241.888 65.5809 272.446L52.1526 256.843C124.502 179.039 202.814 164.581 217.565 162.485C217.824 162.281 218.081 162.078 218.338 161.876L219.003 162.292Z" fill="#DDE3E9"/>
</g>
<path fill-rule="evenodd" clip-rule="evenodd" d="M416.867 368.233L388.016 462.552L374.041 542.764H363.083L377.85 368.233H416.867Z" fill="#BF9174"/>
<path fill-rule="evenodd" clip-rule="evenodd" d="M427.188 368.233C425.228 420.019 427.534 446.731 427.973 451.436C428.411 456.141 434.417 486.649 448.635 544.343L436.958 540.333C414.489 487.418 406.832 459.918 404.255 452.97C401.678 446.021 394.833 417.776 383.721 368.233H427.188Z" fill="#D4A181"/>
<path fill-rule="evenodd" clip-rule="evenodd" d="M445.956 539.619C447.034 539.164 448.309 539.639 448.697 540.744C449.225 542.253 449.833 544.242 449.833 545.414C449.833 547.488 449.143 551.466 449.143 551.466C446.737 551.466 405.901 551.466 405.901 551.466C405.901 551.466 404.216 545.894 407.847 545.45C411.479 545.006 413.881 544.647 413.881 544.647L433.76 535.785C434.274 535.556 434.877 535.797 435.091 536.318L436.292 539.229C436.292 539.229 439.654 540.798 441.755 540.798C442.897 540.798 444.619 540.182 445.956 539.619Z" fill="#E4E4E4"/>
<path fill-rule="evenodd" clip-rule="evenodd" d="M373.889 539.619C374.968 539.164 376.243 539.639 376.63 540.744C377.159 542.253 377.767 544.242 377.767 545.414C377.767 547.488 377.076 551.466 377.076 551.466C374.67 551.466 333.834 551.466 333.834 551.466C333.834 551.466 332.149 545.894 335.78 545.45C339.412 545.006 341.814 544.647 341.814 544.647L361.693 535.785C362.207 535.556 362.81 535.797 363.024 536.318L364.225 539.229C364.225 539.229 367.587 540.798 369.688 540.798C370.83 540.798 372.553 540.182 373.889 539.619Z" fill="#E4E4E4"/>
<path fill-rule="evenodd" clip-rule="evenodd" d="M420.7 368.233L408.433 416.287H370.966L376.553 368.233H420.7Z" fill="#69A1AC"/>
<path fill-rule="evenodd" clip-rule="evenodd" d="M427.6 368.233C433.654 386.381 429.9 416.287 429.9 416.287H391.666L381.153 368.233H427.6Z" fill="#89C5CC"/>
<path fill-rule="evenodd" clip-rule="evenodd" d="M414.904 281.735C408.171 282.099 402.372 280.922 400.342 279.066C395.253 274.413 406.173 252.55 415.255 246.469C424.337 240.388 449.765 249.145 441.994 266.625C439.297 272.691 434.068 276.606 428.177 278.938L418.571 312.719L399.672 302.678L414.904 281.735Z" fill="#D4A181"/>
<path fill-rule="evenodd" clip-rule="evenodd" d="M431.235 242.39C433.943 243.305 440.799 246.587 442.036 247.244C442.826 247.664 443.587 248.3 444.44 247.823C445.139 247.432 445.533 246.352 446.014 245.724C446.572 244.993 447.181 244.302 447.791 243.615C449.527 241.659 451.483 239.96 453.697 238.565C457.852 235.949 462.576 234.681 467.475 235.085C472.885 235.532 478.098 237.746 482.631 240.647C487.482 243.751 491.182 247.862 495.131 251.98C498.895 255.904 503.358 259.032 508.517 260.834C513.716 262.649 518.731 261.974 524.099 261.655C529.594 261.329 535.216 262.193 539.92 265.18C544.311 267.969 547.527 272.102 549.972 276.641C552.259 280.886 553.672 285.283 553.196 290.162C552.685 295.41 550.172 300.135 545.231 302.388C538.069 305.654 529.454 302.906 522.993 299.291C519.255 297.201 515.908 294.537 513.006 291.385C509.135 287.182 506.529 282.158 503.299 277.489C501.782 275.298 500.094 273.263 498.169 271.42C496.301 269.632 494.288 268.198 491.593 268.468C488.742 268.754 486.123 269.131 483.248 268.731C480.49 268.347 477.793 267.519 475.342 266.193C470.573 263.612 466.646 259.612 462.526 256.142C459.167 253.312 455.54 250.344 451.258 249.073C449.471 248.543 446.756 247.966 445.283 249.333C454.145 256.321 451.553 270.496 444.058 277.931C440.012 281.944 428.058 282.796 425.912 278.417C424.553 275.642 427.011 274.254 428.616 273.328C431.69 271.555 434.072 268.445 431.978 264.961C430.172 261.956 425.369 264.262 425.319 264.229C424.62 263.784 420.212 256.872 418.633 249.365C414.215 247.343 415.066 244.174 417.316 242.407C419.566 240.641 427.494 241.126 431.235 242.39Z" fill="#191847"/>
<path fill-rule="evenodd" clip-rule="evenodd" d="M364.99 297.516L387.808 317.514L375.928 325.68L360.89 304.204C351.555 299.255 347.453 296.24 348.584 295.16C349.538 294.249 350.684 294.542 351.74 294.813C352.562 295.023 353.33 295.22 353.909 294.822C355.23 293.914 354.084 289.455 352.814 285.271C351.545 281.087 353.714 281.908 354.876 282.728C358.438 286.497 361.81 291.427 364.99 297.516ZM334.437 311.679L344.455 320.482L341.262 331.789C341.262 331.789 335.056 324.813 329.092 321.628C321.487 317.567 318.59 315.112 315.75 309.184C314.23 306.012 313.637 300.184 316.047 298.863C316.972 298.357 319.5 300.6 322.079 302.889C324.045 304.633 326.04 306.403 327.378 307.004C329.18 307.812 329.503 305.315 329.76 303.321C329.945 301.889 330.097 300.716 330.738 301.207C334.065 302.006 334.437 311.679 334.437 311.679Z" fill="#BA8B72"/>
<path fill-rule="evenodd" clip-rule="evenodd" d="M401.163 317.155C392.085 315.038 380.378 310.421 369.257 299.327L361.654 309.536C368.616 320.382 379.555 330.453 390.603 332.584C399.31 334.263 406.057 324.779 401.163 317.155Z" fill="#2026A2"/>
<path fill-rule="evenodd" clip-rule="evenodd" d="M338.169 313.3C338.169 313.3 369.032 332.668 384.885 332.595C386.454 329.761 388.062 326.928 389.667 324.1C396.543 311.988 403.374 299.954 406.952 288.232L409.018 288.691L427.064 292.699L427.718 292.844C429.995 293.35 438.882 326.457 434.615 345.736C433.15 352.356 434.201 358.582 435.307 365.137C437.142 376.013 439.13 387.794 430.033 403.784C425.528 401.81 417.35 401.081 408.449 400.287C391.791 398.802 372.603 397.091 370.241 386.576C368.477 378.728 369.21 370.731 371.463 362.655C357.756 359.296 342.047 351.04 324.804 336.518C325.821 328.923 338.169 313.3 338.169 313.3Z" fill="#1F28CF"/>
<rect x="311.303" y="400.712" width="17.6391" height="17.6391" transform="rotate(29.1449 311.303 400.712)" fill="#00A79D"/>
<rect x="395" y="21.9148" width="46.9363" height="46.9363" transform="rotate(-27.8337 395 21.9148)" fill="#00A79D"/>
</svg>
