<svg class="woman-arms-outstretched" width="494" height="525" viewBox="0 0 494 525" fill="none" xmlns="http://www.w3.org/2000/svg">
<circle cx="359.014" cy="185.186" r="28.6086" fill="#69A1AC"/>
<ellipse cx="246.673" cy="277.292" rx="143.741" ry="143.043" fill="#A1E4D4"/>
<path d="M264.053 419.731L218.761 311.772L291.191 304.477L310.178 406.046C295.969 413.037 280.435 417.757 264.053 419.731Z" fill="#997659"/>
<path d="M265.768 419.514C259.504 420.345 253.112 420.774 246.62 420.774C234.352 420.774 222.443 419.242 211.074 416.36C209.106 391.307 205.655 357.23 199.601 313.702L280.293 305.574C274.387 354.445 269.545 392.425 265.768 419.514Z" fill="#B28B67"/>
<path fill-rule="evenodd" clip-rule="evenodd" d="M211.645 312.489L243.402 399.403L312.957 392.398L293.6 304.234L211.645 312.489Z" fill="#69A1AC"/>
<path fill-rule="evenodd" clip-rule="evenodd" d="M198.836 313.779C190.99 348.6 203.551 403.417 203.551 403.417L274.529 396.268L285.061 305.094L198.836 313.779Z" fill="#89C5CC"/>
<path fill-rule="evenodd" clip-rule="evenodd" d="M200.578 157.43C213.06 158.36 223.871 156.395 227.712 153.029C237.342 144.588 217.931 103.619 201.311 91.9968C184.692 80.374 137.148 95.66 150.886 128.38C155.654 139.735 165.206 147.195 176.05 151.741L192.553 214.77L228.028 196.855L200.578 157.43Z" fill="#B28B67"/>
<path fill-rule="evenodd" clip-rule="evenodd" d="M178.527 81.7031C172.934 82.6746 165.644 85.7274 162.855 87.5611C162.504 82.6806 160.904 77.8532 158.152 73.7564C155.477 69.7758 151.75 67.1183 148.079 64.2155C146.386 62.8776 144.591 61.6036 142.547 60.9585C140.465 60.3013 138.246 60.2939 136.179 60.7999C134.064 61.3175 132.102 62.3542 130.406 63.7104C129.656 64.3103 129.096 65.0738 128.381 65.7025C127.648 66.3464 126.973 66.026 126.094 65.8053C123.976 65.2738 121.496 65.7354 119.517 66.4518C117.297 67.2557 115.285 68.6675 113.637 70.3624C112.032 72.0123 110.715 74.0409 110.109 76.3325C109.84 77.3527 109.677 78.4411 109.755 79.5126C109.787 79.9523 109.871 80.1801 109.575 80.4964C109.302 80.7891 108.911 80.9909 108.624 81.2831C105.847 84.1076 104.289 88.1387 104.406 92.2451C104.474 94.6408 105.765 98.2676 107.813 102.029C109.86 105.791 118.349 114.017 123.417 116.022C127.939 117.812 133.26 117.814 137.824 116.686C136.674 121.157 136.823 125.943 137.476 130.558C138.186 135.571 139.533 140.471 141.489 145.169C143.348 149.633 145.618 154.2 148.755 157.903C151.69 161.365 155.343 163.576 159.753 163.923C161.773 164.082 163.792 163.948 165.79 163.748C167.759 163.551 169.724 163.334 171.631 162.819C175.239 161.843 178.946 159.826 180.151 155.957C180.585 154.562 180.988 152.881 181.072 151.403C181.102 150.871 181.11 150.53 180.618 150.273C180.028 149.967 179.281 149.88 178.646 149.728C175.024 148.861 172.005 146.786 169.887 143.577C167.739 140.322 166.415 135.388 169.019 132.178C172.233 128.217 177.889 128.045 182.589 128.173C181.364 121.847 182.07 115.237 185.841 110.147C190.013 104.515 196.262 100.947 200.789 95.6369C201.969 94.2531 203.134 92.7704 203.59 90.9345C203.781 90.1673 203.971 89.2009 203.797 88.4009C203.57 87.35 202.577 86.8741 201.748 86.3839C197.352 83.7847 184.12 80.7317 178.527 81.7031Z" fill="#191847"/>
<path fill-rule="evenodd" clip-rule="evenodd" d="M359.379 118.316L304.62 154.163L327.516 173.4L366.111 132.85C387.537 124.779 397.206 119.519 395.118 117.069C393.358 115.004 390.822 115.354 388.486 115.676C386.667 115.928 384.968 116.162 383.853 115.225C381.305 113.084 385.101 104.238 389.076 95.9766C393.05 87.7157 388.172 88.9207 385.443 90.3402C376.698 97.2576 368.01 106.583 359.379 118.316ZM392.165 274.613L330.621 255.542L327.609 285.061L383.823 288.88C402.903 300.091 412.872 304.132 413.731 301.002C414.455 298.363 412.705 296.655 411.093 295.082C409.837 293.857 408.665 292.714 408.812 291.275C409.147 287.991 418.757 285.308 427.976 283.13C437.196 280.951 433.384 278.001 430.625 276.819C419.794 274.525 406.975 273.789 392.165 274.613Z" fill="#B28B67"/>
<path fill-rule="evenodd" clip-rule="evenodd" d="M222.518 186.084C265.232 225.765 316.687 250.307 386.511 270.691L371.936 300.752C300.397 298.448 262.106 295.527 231.062 255.113C223.271 244.97 208.869 209.359 200.319 190.927L222.518 186.084Z" fill="#2026A2"/>
<path fill-rule="evenodd" clip-rule="evenodd" d="M196.093 371.274L318.165 332.942C318.165 332.942 239.303 226.91 224.471 182.823C223.967 181.325 220.174 179.597 218.974 180.356C205.811 188.683 187.343 187.152 187.343 187.152C172.159 240.045 179.087 297.12 196.093 371.274Z" fill="#F2F2F2"/>
<path fill-rule="evenodd" clip-rule="evenodd" d="M238.949 244.369C282.184 315.353 301.091 378.638 258.999 391.856L193.911 412.294C163.041 350.154 161.742 250.963 172.571 197.326C172.984 195.277 173.998 191.342 178.822 189.828L197.734 183.889C197.75 183.91 197.766 183.931 197.782 183.952C203.487 182.209 209.816 180.436 216.67 178.517C251.955 168.636 301.155 154.859 350.777 121.079L366.787 149.448C326.709 194.94 283.889 233.877 238.949 244.369Z" fill="#1F28CF"/>
<rect x="90.5796" y="276.961" width="25.8625" height="25.8625" transform="rotate(21.2365 90.5796 276.961)" fill="#69A1AC"/>
</svg>
