<svg width="600" height="552" viewBox="0 0 600 552" fill="none" xmlns="http://www.w3.org/2000/svg">
<rect x="68" y="13" width="159" height="302" rx="8" fill="#F2F2F2"/>
<path fill-rule="evenodd" clip-rule="evenodd" d="M147 296C155.284 296 162 289.284 162 281C162 272.716 155.284 266 147 266C138.716 266 132 272.716 132 281C132 289.284 138.716 296 147 296Z" fill="white"/>
<path fill-rule="evenodd" clip-rule="evenodd" d="M134 33C135.105 33 136 32.1046 136 31C136 29.8954 135.105 29 134 29C132.895 29 132 29.8954 132 31C132 32.1046 132.895 33 134 33Z" fill="white"/>
<rect x="141" y="29" width="21" height="4" rx="2" fill="white"/>
<rect x="82" y="41" width="131" height="54" rx="4" fill="white"/>
<g clip-path="url(#clip0)">
<rect x="121" y="57.2" width="73" height="8.1" rx="3" fill="#DDE3E9"/>
<rect x="121" y="70.7" width="49" height="8.1" rx="3" fill="#DDE3E9"/>
</g>
<path fill-rule="evenodd" clip-rule="evenodd" d="M103 80C109.627 80 115 74.6274 115 68C115 61.3726 109.627 56 103 56C96.3726 56 91 61.3726 91 68C91 74.6274 96.3726 80 103 80Z" fill="#C5CFD6"/>
<rect x="82" y="103" width="131" height="42" rx="4" fill="white"/>
<g clip-path="url(#clip1)">
<rect x="121" y="115.6" width="73" height="6.3" rx="3" fill="#DDE3E9"/>
<rect x="121" y="126.1" width="49" height="6.3" rx="3" fill="#DDE3E9"/>
</g>
<path fill-rule="evenodd" clip-rule="evenodd" d="M103 136C109.627 136 115 130.627 115 124C115 117.373 109.627 112 103 112C96.3726 112 91 117.373 91 124C91 130.627 96.3726 136 103 136Z" fill="#C5CFD6"/>
<rect x="82" y="153" width="131" height="42" rx="4" fill="white"/>
<g clip-path="url(#clip2)">
<rect x="121" y="165.6" width="73" height="6.3" rx="3" fill="#DDE3E9"/>
<rect x="121" y="176.1" width="49" height="6.3" rx="3" fill="#DDE3E9"/>
</g>
<path fill-rule="evenodd" clip-rule="evenodd" d="M103 186C109.627 186 115 180.627 115 174C115 167.373 109.627 162 103 162C96.3726 162 91 167.373 91 174C91 180.627 96.3726 186 103 186Z" fill="#AFB9C5"/>
<rect x="82" y="203" width="131" height="42" rx="4" fill="white"/>
<g clip-path="url(#clip3)">
<rect x="121" y="215.6" width="73" height="6.3" rx="3" fill="#DDE3E9"/>
<rect x="121" y="226.1" width="49" height="6.3" rx="3" fill="#DDE3E9"/>
</g>
<path fill-rule="evenodd" clip-rule="evenodd" d="M103 236C109.627 236 115 230.627 115 224C115 217.373 109.627 212 103 212C96.3726 212 91 217.373 91 224C91 230.627 96.3726 236 103 236Z" fill="#C5CFD6"/>
<rect x="200" y="64" width="335" height="346" rx="8" fill="#F2F2F2"/>
<rect x="449" y="107" width="70" height="81" rx="8" fill="white"/>
<path fill-rule="evenodd" clip-rule="evenodd" d="M484 154C492.837 154 500 146.837 500 138C500 129.163 492.837 122 484 122C475.163 122 468 129.163 468 138C468 146.837 475.163 154 484 154Z" fill="#DDE3E9"/>
<rect x="459" y="158" width="50" height="6" rx="3" fill="#DDE3E9"/>
<rect x="467" y="168" width="34" height="6" rx="3" fill="#DDE3E9"/>
<path d="M200 72C200 67.5817 203.582 64 208 64H527C531.418 64 535 67.5817 535 72V91H200V72Z" fill="#C5CFD6"/>
<path fill-rule="evenodd" clip-rule="evenodd" d="M213 82C215.209 82 217 80.2091 217 78C217 75.7909 215.209 74 213 74C210.791 74 209 75.7909 209 78C209 80.2091 210.791 82 213 82Z" fill="#F2F2F2"/>
<path fill-rule="evenodd" clip-rule="evenodd" d="M225 82C227.209 82 229 80.2091 229 78C229 75.7909 227.209 74 225 74C222.791 74 221 75.7909 221 78C221 80.2091 222.791 82 225 82Z" fill="#F2F2F2"/>
<path fill-rule="evenodd" clip-rule="evenodd" d="M237 82C239.209 82 241 80.2091 241 78C241 75.7909 239.209 74 237 74C234.791 74 233 75.7909 233 78C233 80.2091 234.791 82 237 82Z" fill="#F2F2F2"/>
<rect x="449" y="196" width="70" height="194" rx="8" fill="white"/>
<rect x="467" y="214" width="34" height="26" rx="4" fill="#DDE3E9"/>
<rect x="467" y="248" width="34" height="25" rx="4" fill="#AFB9C5"/>
<rect x="467" y="281" width="34" height="25" rx="4" fill="#DDE3E9"/>
<rect x="467" y="347" width="34" height="25" rx="4" fill="#DDE3E9"/>
<rect x="467" y="314" width="34" height="25" rx="4" fill="#C5CFD6"/>
<rect x="216" y="108" width="225" height="47" rx="4" fill="white"/>
<g clip-path="url(#clip4)">
<rect x="225" y="122.1" width="167" height="7.05" rx="3" fill="#DDE3E9"/>
<rect x="225" y="133.85" width="112.096" height="7.05" rx="3" fill="#DDE3E9"/>
</g>
<path fill-rule="evenodd" clip-rule="evenodd" d="M416.954 138.5C420.82 138.5 423.954 135.366 423.954 131.5C423.954 127.634 420.82 124.5 416.954 124.5C413.088 124.5 409.954 127.634 409.954 131.5C409.954 135.366 413.088 138.5 416.954 138.5Z" fill="#DDE3E9"/>
<path fill-rule="evenodd" clip-rule="evenodd" d="M416.954 134.5C418.611 134.5 419.954 133.157 419.954 131.5C419.954 129.843 418.611 128.5 416.954 128.5C415.297 128.5 413.954 129.843 413.954 131.5C413.954 133.157 415.297 134.5 416.954 134.5Z" fill="#F2F2F2"/>
<rect x="216" y="163" width="225" height="39" rx="4" fill="white"/>
<g clip-path="url(#clip5)">
<rect x="225" y="174.7" width="167" height="5.85" rx="2.925" fill="#DDE3E9"/>
<rect x="225" y="184.45" width="112.096" height="5.85" rx="2.925" fill="#DDE3E9"/>
</g>
<path fill-rule="evenodd" clip-rule="evenodd" d="M416.954 189.5C420.82 189.5 423.954 186.366 423.954 182.5C423.954 178.634 420.82 175.5 416.954 175.5C413.088 175.5 409.954 178.634 409.954 182.5C409.954 186.366 413.088 189.5 416.954 189.5Z" fill="#DDE3E9"/>
<path fill-rule="evenodd" clip-rule="evenodd" d="M416.954 185.5C418.611 185.5 419.954 184.157 419.954 182.5C419.954 180.843 418.611 179.5 416.954 179.5C415.297 179.5 413.954 180.843 413.954 182.5C413.954 184.157 415.297 185.5 416.954 185.5Z" fill="#F2F2F2"/>
<rect x="216" y="210" width="225" height="39" rx="4" fill="white"/>
<g clip-path="url(#clip6)">
<rect x="225" y="221.7" width="167" height="5.85" rx="2.925" fill="#DDE3E9"/>
<rect x="225" y="231.45" width="112.096" height="5.85" rx="2.925" fill="#DDE3E9"/>
</g>
<path fill-rule="evenodd" clip-rule="evenodd" d="M416.954 236.5C420.82 236.5 423.954 233.366 423.954 229.5C423.954 225.634 420.82 222.5 416.954 222.5C413.088 222.5 409.954 225.634 409.954 229.5C409.954 233.366 413.088 236.5 416.954 236.5Z" fill="#DDE3E9"/>
<path fill-rule="evenodd" clip-rule="evenodd" d="M416.954 232.5C418.611 232.5 419.954 231.157 419.954 229.5C419.954 227.843 418.611 226.5 416.954 226.5C415.297 226.5 413.954 227.843 413.954 229.5C413.954 231.157 415.297 232.5 416.954 232.5Z" fill="#AFB9C5"/>
<rect x="216" y="351" width="225" height="39" rx="4" fill="white"/>
<g clip-path="url(#clip7)">
<rect x="225" y="362.7" width="167" height="5.85" rx="2.925" fill="#DDE3E9"/>
<rect x="225" y="372.45" width="112.096" height="5.85" rx="2.925" fill="#DDE3E9"/>
</g>
<path fill-rule="evenodd" clip-rule="evenodd" d="M416.954 377.5C420.82 377.5 423.954 374.366 423.954 370.5C423.954 366.634 420.82 363.5 416.954 363.5C413.088 363.5 409.954 366.634 409.954 370.5C409.954 374.366 413.088 377.5 416.954 377.5Z" fill="#DDE3E9"/>
<path fill-rule="evenodd" clip-rule="evenodd" d="M416.954 373.5C418.611 373.5 419.954 372.157 419.954 370.5C419.954 368.843 418.611 367.5 416.954 367.5C415.297 367.5 413.954 368.843 413.954 370.5C413.954 372.157 415.297 373.5 416.954 373.5Z" fill="#F2F2F2"/>
<rect x="216" y="304" width="225" height="39" rx="4" fill="white"/>
<g clip-path="url(#clip8)">
<rect x="225" y="315.7" width="167" height="5.85" rx="2.925" fill="#DDE3E9"/>
<rect x="225" y="325.45" width="112.096" height="5.85" rx="2.925" fill="#DDE3E9"/>
</g>
<path fill-rule="evenodd" clip-rule="evenodd" d="M416.954 330.5C420.82 330.5 423.954 327.366 423.954 323.5C423.954 319.634 420.82 316.5 416.954 316.5C413.088 316.5 409.954 319.634 409.954 323.5C409.954 327.366 413.088 330.5 416.954 330.5Z" fill="#DDE3E9"/>
<path fill-rule="evenodd" clip-rule="evenodd" d="M416.954 326.5C418.611 326.5 419.954 325.157 419.954 323.5C419.954 321.843 418.611 320.5 416.954 320.5C415.297 320.5 413.954 321.843 413.954 323.5C413.954 325.157 415.297 326.5 416.954 326.5Z" fill="#F2F2F2"/>
<rect x="216" y="257" width="225" height="39" rx="4" fill="white"/>
<g clip-path="url(#clip9)">
<rect x="225" y="268.7" width="167" height="5.85" rx="2.925" fill="#DDE3E9"/>
<rect x="225" y="278.45" width="112.096" height="5.85" rx="2.925" fill="#DDE3E9"/>
</g>
<path fill-rule="evenodd" clip-rule="evenodd" d="M416.954 283.5C420.82 283.5 423.954 280.366 423.954 276.5C423.954 272.634 420.82 269.5 416.954 269.5C413.088 269.5 409.954 272.634 409.954 276.5C409.954 280.366 413.088 283.5 416.954 283.5Z" fill="#DDE3E9"/>
<path fill-rule="evenodd" clip-rule="evenodd" d="M416.954 279.5C418.611 279.5 419.954 278.157 419.954 276.5C419.954 274.843 418.611 273.5 416.954 273.5C415.297 273.5 413.954 274.843 413.954 276.5C413.954 278.157 415.297 279.5 416.954 279.5Z" fill="#F2F2F2"/>
<path fill-rule="evenodd" clip-rule="evenodd" d="M63.007 320.986C63.003 320.996 62.999 321.006 62.993 321.018C62.999 321.008 63.007 320.968 63.007 320.986Z" fill="#A1E4D4"/>
<path fill-rule="evenodd" clip-rule="evenodd" d="M62.9977 321.001C62.9977 321.003 62.9957 321.007 62.9957 321.011C62.9957 321.001 63.0137 320.971 62.9977 321.001Z" fill="#A1E4D4"/>
<path fill-rule="evenodd" clip-rule="evenodd" d="M63.0671 320.832C63.0531 320.872 63.0351 320.91 63.0191 320.95C63.0271 320.93 63.0351 320.914 63.0431 320.894C62.8351 321.414 62.9671 321.076 63.0671 320.832Z" fill="#A1E4D4"/>
<path fill-rule="evenodd" clip-rule="evenodd" d="M63.0224 320.953C63.0144 320.971 63.0064 320.991 62.9984 321.009C62.9404 321.121 63.0224 320.953 63.0224 320.953Z" fill="#A1E4D4"/>
<path fill-rule="evenodd" clip-rule="evenodd" d="M62.999 321.002C62.999 321 62.999 321 63.001 320.998C62.999 321 62.999 321 62.999 321.002Z" fill="#A1E4D4"/>
<path fill-rule="evenodd" clip-rule="evenodd" d="M62.9895 321.016C62.9775 321.04 63.0455 320.924 62.9895 321.016V321.016Z" fill="#A1E4D4"/>
<path fill-rule="evenodd" clip-rule="evenodd" d="M62.998 321.002L63.002 320.998C63 321 63 321.002 62.998 321.002Z" fill="#A1E4D4"/>
<rect x="15" y="269" width="95" height="63" rx="4" fill="#A1E4D4"/>
<path fill-rule="evenodd" clip-rule="evenodd" d="M51 287L23 332H79L51 287Z" fill="#00A79D"/>
<path fill-rule="evenodd" clip-rule="evenodd" d="M78.5 299L54 332H103L78.5 299Z" fill="#23BDB4"/>
<path fill-rule="evenodd" clip-rule="evenodd" d="M89 299C93.9706 299 98 294.971 98 290C98 285.029 93.9706 281 89 281C84.0294 281 80 285.029 80 290C80 294.971 84.0294 299 89 299Z" fill="white"/>
<path fill-rule="evenodd" clip-rule="evenodd" d="M564.766 197.179C562.845 199.219 560.123 200.5 557.095 200.5C551.278 200.5 546.562 195.799 546.562 190C546.562 184.201 551.278 179.5 557.095 179.5V160C540.546 160 527 173.503 527 190C527 206.497 540.546 220 557.095 220C565.788 220 573.645 216.334 579 210.502L564.766 197.179Z" fill="#A1E4D4"/>
<path fill-rule="evenodd" clip-rule="evenodd" d="M557 160V179.5C562.799 179.5 567.5 184.201 567.5 190H587C587 173.503 573.497 160 557 160Z" fill="#00A79D"/>
<path fill-rule="evenodd" clip-rule="evenodd" d="M567.097 190C567.097 193.407 565.492 196.435 563 198.391L575.262 214C582.399 208.412 587 199.749 587 190H567.097Z" fill="#23BDB4"/>
<rect x="392" y="32" width="6" height="25" rx="3" fill="#A1E4D4"/>
<rect x="406" y="16" width="6" height="41" rx="3" fill="#A1E4D4"/>
<rect x="420" y="8" width="6" height="49" rx="3" fill="#A1E4D4"/>
<rect x="434" y="16" width="6" height="41" rx="3" fill="#A1E4D4"/>
<rect x="448" width="6" height="57" rx="3" fill="#00A79D"/>
<path fill-rule="evenodd" clip-rule="evenodd" d="M5.62891 95.3846C5.62891 78.6761 19.1319 65 35.6289 65V95.3846L15.1269 117.5C9.29491 112.093 5.62891 104.161 5.62891 95.3846Z" fill="#A1E4D4"/>
<path fill-rule="evenodd" clip-rule="evenodd" d="M34.835 95H65.1309C65.1309 102.832 61.9362 110.17 56.8858 115.502C51.3311 121.334 43.4209 125 34.835 125C26.9263 125 19.6871 121.837 14.1309 116.836L34.835 95Z" fill="#00A79D"/>
<path fill-rule="evenodd" clip-rule="evenodd" d="M65.0291 95C65.0291 78.503 51.5261 65 35.0291 65V95H65.0291ZM20.0289 65L32.0289 92L5.02892 80C7.69892 73.001 13.6944 67.67 20.0289 65Z" fill="#23BDB4"/>
<path fill-rule="evenodd" clip-rule="evenodd" d="M204.932 328.301C209 330.755 212.997 331.94 214.873 331.456C219.577 330.243 220.01 313.019 216.37 306.229C212.73 299.44 194.016 296.48 193.072 309.933C192.745 314.602 194.704 318.769 197.599 322.169L192.408 346.378H207.485L204.932 328.301Z" fill="#B28B67"/>
<path fill-rule="evenodd" clip-rule="evenodd" d="M210.415 298.834C208.355 298.206 205.364 297.992 204.106 298.137C204.822 296.421 205.106 294.509 204.874 292.648C204.649 290.839 203.841 289.299 203.095 287.686C202.75 286.942 202.36 286.202 201.778 285.633C201.186 285.054 200.436 284.671 199.649 284.489C198.844 284.302 198.003 284.317 197.196 284.487C196.84 284.562 196.52 284.725 196.17 284.816C195.812 284.909 195.638 284.684 195.378 284.459C194.752 283.916 193.833 283.647 193.04 283.551C192.151 283.444 191.228 283.578 190.38 283.871C189.555 284.155 188.762 284.618 188.165 285.292C187.899 285.591 187.658 285.933 187.501 286.31C187.437 286.464 187.426 286.556 187.272 286.613C187.129 286.665 186.962 286.667 186.815 286.716C185.392 287.199 184.175 288.299 183.512 289.713C183.126 290.537 182.943 291.988 182.993 293.615C183.043 295.242 184.511 299.487 185.884 301.035C187.109 302.417 188.911 303.329 190.649 303.728C189.495 305.048 188.727 306.697 188.159 308.375C187.542 310.197 187.16 312.09 187.019 314.019C186.885 315.852 186.873 317.79 187.302 319.583C187.704 321.261 188.563 322.637 189.997 323.51C190.654 323.909 191.36 324.21 192.071 324.484C192.771 324.755 193.474 325.018 194.208 325.17C195.597 325.457 197.197 325.408 198.266 324.302C198.652 323.903 199.076 323.402 199.357 322.915C199.458 322.739 199.519 322.625 199.396 322.454C199.249 322.249 199.011 322.091 198.822 321.931C197.744 321.016 197.076 319.795 196.908 318.344C196.737 316.871 197.132 314.971 198.563 314.328C200.329 313.535 202.274 314.445 203.843 315.294C204.51 312.938 205.88 310.817 208.027 309.736C210.403 308.541 213.129 308.401 215.571 307.375C216.207 307.108 216.855 306.804 217.323 306.26C217.519 306.032 217.749 305.737 217.827 305.436C217.929 305.04 217.674 304.709 217.478 304.4C216.434 302.766 212.475 299.463 210.415 298.834Z" fill="#191847"/>
<path fill-rule="evenodd" clip-rule="evenodd" d="M191.152 508.565C217.867 508.565 239.523 487.878 239.523 462.36C239.523 436.842 217.867 416.156 191.152 416.156C164.438 416.156 142.781 436.842 142.781 462.36C142.781 487.878 164.438 508.565 191.152 508.565Z" fill="#00A79D"/>
<path fill-rule="evenodd" clip-rule="evenodd" d="M266.354 459.896C268.69 468.086 274.511 483.609 282.56 501.436L290.208 499.203C283.517 458.182 277.948 431.024 274.758 422.758C272.651 417.296 256.706 417.936 258.54 428.925C259.31 433.533 262.353 445.873 266.354 459.896ZM234.917 430.842C222.444 433.428 196.582 442.569 189.197 445.49C184.556 447.326 187.548 453.552 191.508 453.007C192.178 452.915 194.55 452.649 198.09 452.253C209.459 450.98 232.871 448.359 250.628 445.802C259.978 444.455 254.949 426.929 245.241 428.784C241.975 429.408 238.501 430.098 234.917 430.842Z" fill="#B28B67"/>
<path fill-rule="evenodd" clip-rule="evenodd" d="M275.247 418.128C273.972 413.964 216.005 399.183 216.005 399.183H211.254V403.613L251.199 423.961C251.146 424.618 251.178 425.312 251.307 426.044C251.019 441.129 257.471 452.398 263.858 463.556C268.035 470.852 272.185 478.101 274.405 486.337L289.08 484.146C288.653 483.052 287.977 478.119 287.053 471.374C284.722 454.367 280.813 425.842 275.33 418.295C275.31 418.269 275.291 418.243 275.271 418.217C275.264 418.187 275.256 418.158 275.247 418.128Z" fill="#2F3676"/>
<path fill-rule="evenodd" clip-rule="evenodd" d="M214.573 436.046C210.918 435.314 207.552 434.661 204.672 434.155C186.07 430.89 180.645 420.925 183.852 399.183H218.128C223.727 400.792 252.824 413.003 267.921 419.498C277.913 423.796 274.763 439.292 269.105 443.325C269.074 443.572 268.972 443.74 268.791 443.816C247.338 452.714 229.043 452.05 217.295 451.623C212.375 451.445 208.603 451.308 206.229 451.933L202.508 440.187L214.573 436.046Z" fill="#555595"/>
<path fill-rule="evenodd" clip-rule="evenodd" d="M193.161 445.688C193.078 444.52 192.095 443.58 190.934 443.729C189.703 443.887 188.255 444.142 187.475 444.522C185.948 445.268 183.266 447.207 183.266 447.207C184.13 448.98 198.798 479.075 198.798 479.075C198.798 479.075 203.507 478.314 202.53 475.478C201.553 472.642 200.954 470.743 200.954 470.743L200.347 453.092C200.327 452.529 199.847 452.093 199.285 452.129L196.894 452.279C196.894 452.279 194.531 450.365 193.777 448.816C193.41 448.065 193.24 446.796 193.161 445.688Z" fill="#E4E4E4"/>
<path fill-rule="evenodd" clip-rule="evenodd" d="M281.384 497.743C280.298 497.306 279.021 497.778 278.646 498.887C278.248 500.064 277.842 501.477 277.842 502.345C277.842 504.045 278.408 507.308 278.408 507.308C280.38 507.308 313.84 507.308 313.84 507.308C313.84 507.308 315.221 502.739 312.245 502.374C309.269 502.01 307.301 501.716 307.301 501.716L291.183 494.526C290.668 494.296 290.066 494.537 289.851 495.058L288.938 497.274C288.938 497.274 286.184 498.56 284.461 498.56C283.627 498.56 282.414 498.158 281.384 497.743Z" fill="#E4E4E4"/>
<path fill-rule="evenodd" clip-rule="evenodd" d="M264.449 405.24L244.411 390.515L239.981 401.473L259.824 409.707C265.436 416.304 268.574 419.054 269.238 417.957C269.798 417.032 269.361 416.167 268.957 415.369C268.643 414.748 268.35 414.168 268.566 413.634C269.059 412.415 272.829 412.544 276.401 412.818C279.973 413.093 278.932 411.503 278.071 410.717C274.424 408.533 269.884 406.707 264.449 405.24ZM159.364 431.185C161.205 427.448 167.474 391.023 167.474 391.023L180.602 391.075C180.602 391.075 168.443 430.352 167.474 432.755C166.215 435.877 168.354 440.413 169.804 443.489C170.028 443.965 170.236 444.405 170.412 444.801C168.4 445.702 167.434 444.613 166.415 443.465C165.264 442.168 164.046 440.796 161.18 442.131C160.072 442.646 159.024 443.256 158 443.851C154.464 445.909 151.215 447.798 146.795 445.069C146.094 444.637 145.326 443.008 147.181 441.735C151.804 438.563 158.464 433.012 159.364 431.185Z" fill="#715133"/>
<path fill-rule="evenodd" clip-rule="evenodd" d="M204.781 335.9L210.213 334.967C230.367 352.39 238.645 385.862 263.35 403.593L257.404 410.968C214.546 405.658 203.923 364.831 204.781 335.9Z" fill="#2B44FF"/>
<path fill-rule="evenodd" clip-rule="evenodd" d="M181.101 404.212C181.101 404.212 213.772 404.212 229.165 404.212C231.361 404.212 230.947 401.038 230.63 399.437C226.965 380.955 212.662 361.032 212.662 334.723L198.798 332.548C187.331 351.003 183.365 373.726 181.101 404.212Z" fill="#A1E4D4"/>
<path fill-rule="evenodd" clip-rule="evenodd" d="M175.697 417.413C173.536 422.605 171.418 427.135 169.422 430.614H159.114C158.005 394.731 171.581 367.12 182.943 350.472C180.42 350.292 178.143 349.235 176.704 346.636C171.636 337.486 173.466 332.449 178.882 330.793C181.86 329.882 184.66 330.504 188.013 331.248C190.756 331.857 193.869 332.547 197.751 332.548C197.752 332.548 197.753 332.548 197.754 332.548C198.131 332.548 198.473 332.573 198.784 332.621L203.384 332.884C203.384 332.884 222.062 396.232 213.687 417.413H175.697Z" fill="#2B44FF"/>
<path fill-rule="evenodd" clip-rule="evenodd" d="M175.697 417.413C178.531 410.601 181.437 402.651 184.234 394.439C185.275 403.482 187.009 412.564 189.896 417.413H175.697Z" fill="black" fill-opacity="0.1"/>
<path fill-rule="evenodd" clip-rule="evenodd" d="M396.845 277.972C392.642 280.96 388.411 282.569 386.341 282.199C381.148 281.271 379.272 262.672 382.659 255.029C386.045 247.385 406.064 242.653 408.184 257.131C408.92 262.155 407.139 266.824 404.283 270.739L411.881 296.505L395.558 297.738L396.845 277.972Z" fill="#B28B67"/>
<path fill-rule="evenodd" clip-rule="evenodd" d="M394.65 259.769C393.079 257.774 391.603 256.273 389.769 255.475C382.602 256.13 381.665 254.907 381.337 250.571C382.434 249.654 386.418 247.949 390.968 247.21C393.253 246.365 396.031 246.282 398.781 247.196C402.143 247.881 405.081 249.681 406.597 253.354C411.631 260.703 408.855 268.959 404.506 272.036C403.185 270.691 402.022 269.379 400.977 268.117C401.679 267.319 402.072 266.249 401.985 265.105C401.815 262.851 399.85 261.163 397.597 261.333C397.431 261.345 397.268 261.367 397.109 261.399C397.221 264.224 397.523 273.789 396.677 277.183C395.68 281.184 388.21 282.712 385.58 282.911C383.308 283.083 383.223 280.926 383.162 279.38C383.153 279.157 383.145 278.947 383.131 278.758C383.101 278.365 383.613 278.327 384.192 278.284C384.944 278.229 385.808 278.166 385.743 277.303C385.672 276.363 384.318 275.74 383.107 275.183C382.352 274.835 381.651 274.513 381.352 274.155C380.41 273.026 380.001 271.438 381.287 271.341C381.99 271.288 382.986 271.62 384.183 272.02C385.991 272.624 388.259 273.382 390.678 273.199C394.674 272.897 394.65 259.934 394.65 259.769Z" fill="#191847"/>
<path fill-rule="evenodd" clip-rule="evenodd" d="M416.993 360L396.57 431.332L381.668 483.908L370.8 483.908L386.635 360L416.993 360Z" fill="#1F28CF"/>
<path fill-rule="evenodd" clip-rule="evenodd" d="M422.455 360C422.928 396.765 424.538 416.818 425.034 420.159C425.53 423.499 433.03 444.749 447.534 483.908L436.275 483.908C417.811 446.341 407.504 425.092 405.353 420.159C403.203 415.226 396.568 395.173 386.573 360L422.455 360Z" fill="#2B44FF"/>
<path fill-rule="evenodd" clip-rule="evenodd" d="M448.54 494L447.977 482.226L436.147 482.226C427.733 488.113 414.177 491.757 414.177 491.757L414.177 494L435.584 494L442.907 492.879L442.907 494L448.54 494Z" fill="#191847"/>
<path fill-rule="evenodd" clip-rule="evenodd" d="M383.193 494L382.63 482.226L370.8 482.226C362.386 488.113 348.83 491.757 348.83 491.757L348.83 494L370.237 494L377.56 492.879L377.56 494L383.193 494Z" fill="#191847"/>
<path fill-rule="evenodd" clip-rule="evenodd" d="M348.776 371.934L365.29 350.613L373.187 360.696L354.937 375.202C351.051 383.747 348.598 387.549 347.577 386.605C346.716 385.81 346.914 384.778 347.097 383.827C347.239 383.087 347.372 382.396 346.987 381.904C346.108 380.782 342.212 382.043 338.566 383.398C334.92 384.752 335.531 382.785 336.195 381.709C339.348 378.345 343.542 375.087 348.776 371.934ZM465.356 383.154C462.813 379.424 450.583 341.306 450.583 341.306L436.476 343.345C436.476 343.345 455.469 383.632 456.873 386.064C458.697 389.222 457.082 394.409 455.986 397.927C455.817 398.471 455.66 398.976 455.53 399.426C457.829 400.088 458.704 398.775 459.626 397.389C460.668 395.825 461.771 394.169 465.054 395.167C466.322 395.553 467.541 396.048 468.732 396.533C472.844 398.204 476.622 399.74 480.963 396.146C481.651 395.576 482.231 393.713 480.045 392.628C474.597 389.925 466.599 384.978 465.356 383.154Z" fill="#B28B67"/>
<path fill-rule="evenodd" clip-rule="evenodd" d="M402.163 287.823L396.183 287.644C389.651 314.131 375.298 339.381 353.122 363.394L375.283 383.694C396.234 350.996 407.446 318.723 402.163 287.823Z" fill="#191847"/>
<path fill-rule="evenodd" clip-rule="evenodd" d="M437.92 357.51L385.913 364.819C385.913 364.819 397.821 318.414 393.512 287.753L408.872 283.215C423.983 301.276 430.89 325.156 437.92 357.51Z" fill="#DDE3E9"/>
<path fill-rule="evenodd" clip-rule="evenodd" d="M409.206 283.179L409.217 283.166C409.217 283.166 449.997 313.183 464.686 376.436L439.338 379.999C439.147 377.148 438.884 374.344 438.555 371.588L404.514 376.372C404.514 376.372 402.514 315.535 400.336 295.674L402.607 284.327C402.607 284.327 406.345 283.634 408.174 283.313L409.198 283.169C409.201 283.172 409.204 283.176 409.206 283.179Z" fill="#2F3676"/>
<path fill-rule="evenodd" clip-rule="evenodd" d="M438.587 371.854C437.177 359.849 434.534 348.762 431.331 338.843C432.098 351.04 432.2 365.831 429.103 373.187L438.587 371.854Z" fill="black" fill-opacity="0.1"/>
<path fill-rule="evenodd" clip-rule="evenodd" d="M428.117 352.012L410.21 346.574L411.307 354.375L428.117 352.012Z" fill="white" fill-opacity="0.2"/>
<defs>
<clipPath id="clip0">
<rect width="73" height="21.6" fill="white" transform="translate(121 57.2)"/>
</clipPath>
<clipPath id="clip1">
<rect width="73" height="16.8" fill="white" transform="translate(121 115.6)"/>
</clipPath>
<clipPath id="clip2">
<rect width="73" height="16.8" fill="white" transform="translate(121 165.6)"/>
</clipPath>
<clipPath id="clip3">
<rect width="73" height="16.8" fill="white" transform="translate(121 215.6)"/>
</clipPath>
<clipPath id="clip4">
<rect width="167" height="18.8" fill="white" transform="translate(225 122.1)"/>
</clipPath>
<clipPath id="clip5">
<rect width="167" height="15.6" fill="white" transform="translate(225 174.7)"/>
</clipPath>
<clipPath id="clip6">
<rect width="167" height="15.6" fill="white" transform="translate(225 221.7)"/>
</clipPath>
<clipPath id="clip7">
<rect width="167" height="15.6" fill="white" transform="translate(225 362.7)"/>
</clipPath>
<clipPath id="clip8">
<rect width="167" height="15.6" fill="white" transform="translate(225 315.7)"/>
</clipPath>
<clipPath id="clip9">
<rect width="167" height="15.6" fill="white" transform="translate(225 268.7)"/>
</clipPath>
</defs>
</svg>
