<svg width="52" height="52" viewBox="0 0 52 52" fill="none" xmlns="http://www.w3.org/2000/svg">
<circle cx="25.9996" cy="25.9998" r="24.0807" fill="#8600F0"/>
<path d="M14.4484 22.3388C14.4484 19.9043 15.6948 17.7614 17.619 16.588C17.8231 16.464 17.7356 16.1506 17.4951 16.1506C14.7108 16.1506 12.5023 18.3664 12.0941 21.2382C11.686 21.3038 11.3726 21.7702 11.3726 22.3242C11.3726 22.9073 11.7151 23.3665 12.1597 23.4029C12.6481 25.8665 14.6233 27.4409 16.6204 28.1041C16.9338 28.1697 17.1379 27.7761 16.8974 27.5575C15.4688 26.2674 14.4484 24.3286 14.4484 22.3388Z" fill="white"/>
<path d="M40.8019 15.8968C40.7291 15.7 40.6489 15.5178 40.5687 15.3356C40.1314 14.3589 39.592 13.5717 38.9871 12.9886C38.2217 12.2816 37.4273 11.9026 36.4506 11.9026C35.4666 11.9026 34.8835 12.2816 34.5701 12.4711C31.4287 14.3589 26.3849 15.8239 23.3455 15.8239C20.3061 15.8239 20.4737 15.8385 20.4737 15.8385C18.1705 16.8589 16.4795 19.2569 16.4795 22.0339C16.4795 24.5266 17.7769 26.7133 19.7157 27.8649C20.5976 28.601 21.4358 28.5063 21.2536 29.483C21.0714 30.4597 19.6136 36.5895 19.4314 37.865C19.2492 39.1405 19.22 39.8694 19.723 40.4889C20.2332 41.1085 23.3309 42.2237 24.6793 42.2237C26.0277 42.2237 25.6851 41.5895 25.6851 39.0312C25.6851 36.4729 25.0073 29.432 26.8878 29.432C30.4082 29.432 32.245 30.6929 35.0001 31.7425C35.6561 31.9903 36.0278 32.085 36.4652 32.085C36.9025 32.085 37.8281 31.9466 38.9943 30.7585C39.6649 30.0734 40.1387 29.3882 40.576 28.4115C40.6562 28.222 40.7363 28.0325 40.8165 27.8284C41.4652 26.1375 41.8151 24.0456 41.8151 21.859C41.8078 19.6869 41.4579 17.5878 40.8019 15.8968ZM38.8631 27.3401C38.3967 28.4844 37.5803 29.3955 36.9025 29.3955C36.2246 29.3955 35.6051 28.4844 35.1386 27.3401C34.592 26.0063 34.2421 24.0602 34.2421 21.8954C34.2421 19.7234 34.592 17.77 35.1386 16.4362C35.6051 15.2991 36.2246 14.614 36.8952 14.614C37.573 14.614 38.3748 15.3064 38.8486 16.4362C39.4025 17.77 39.9054 19.7234 39.9054 21.8954C39.9127 24.0602 39.4098 26.0063 38.8631 27.3401Z" fill="white"/>
</svg>
