<svg width="49" height="49" viewBox="0 0 49 49" fill="none" xmlns="http://www.w3.org/2000/svg">
<path d="M48.1765 24.4493C48.1765 37.5535 37.5535 48.1765 24.4493 48.1765C11.3451 48.1765 0.722042 37.5535 0.722042 24.4493C0.722042 11.3451 11.3451 0.722052 24.4493 0.722052C37.5535 0.722052 48.1765 11.3451 48.1765 24.4493Z" fill="#8600F0"/>
<path d="M38.9836 18.084C38.7587 18.084 38.5405 18.1453 38.3497 18.268L32.4539 21.9895C32.2835 22.0986 32.1813 22.2826 32.1813 22.4803V27.6604C32.1813 27.858 32.2835 28.042 32.4539 28.1511L38.3497 31.8726C38.5405 31.9885 38.7587 32.0566 38.9836 32.0566H40.4013C40.7285 32.0566 40.9875 31.7976 40.9875 31.4773V18.6633C40.9875 18.343 40.7216 18.084 40.4013 18.084H38.9836ZM26.9126 33.7879H13.9623C12.0334 33.7879 10.4521 32.2066 10.4521 30.2845V19.8425C10.4521 17.9136 12.0334 16.3391 13.9555 16.3391H26.9058C28.8347 16.3391 30.4092 17.9204 30.4092 19.8425V30.2777C30.416 32.2066 28.8415 33.7879 26.9126 33.7879Z" fill="white"/>
</svg>
